# AST/ASF file generated using VICON BodyLanguage
# -----------------------------------------------
:version 1.10
:name VICON
:units
  mass 1.0
  length 0.45
  angle deg
:documentation
   .ast/.asf automatically generated from VICON data using
   VICON BodyBuilder and BodyLanguage model FoxedUp or BRILLIANT.MOD
:root
   order TX TY TZ RX RY RZ
   axis XYZ
   position 0 0 0  
   orientation 0 0 0 
:bonedata
  begin
     id 1 
     name lhipjoint
     direction 0.660183 -0.676772 0.325788 
     length 2.75133 
     axis 0 0 0  XYZ
  end
  begin
     id 2 
     name lfemur
     direction 0.34202 -0.939693 0  
     length 7.70317  
     axis 0 0 20  XYZ
    dof rx ry rz
    limits (-160.0 20.0)
           (-70.0 70.0)
           (-60.0 70.0)
  end
  begin
     id 3 
     name ltibia
     direction 0.342105 -0.939662 0   
     length 7.18701   
     axis 0 0 20   XYZ
    dof rx
    limits (-10.0 170.0)
  end
  begin
     id 4 
     name lfoot
     direction 0.14163 -0.389126 0.910232   
     length 2.41719   
     axis -90 7.62852e-016 20   XYZ
    dof rx rz
    limits (-45.0 90.0)
           (-70.0 20.0)
  end
  begin
     id 5 
     name ltoes
     direction 1.53533e-011 -4.21926e-011 1   
     length 1.18611   
     axis -90 7.62852e-016 20   XYZ
    dof rx
    limits (-90.0 20.0)
  end
  begin
     id 6 
     name rhipjoint
     direction -0.6658 -0.67229 0.323631   
     length 2.76968  
     axis 0 0 0  XYZ 
  end
  begin
     id 7 
     name rfemur
     direction -0.34202 -0.939693 0   
     length 7.92547   
     axis 0 0 -20   XYZ
    dof rx ry rz
    limits (-160.0 20.0)
           (-70.0 70.0)
           (-70.0 60.0)
  end
  begin
     id 8 
     name rtibia
     direction -0.342022 -0.939692 0   
     length 7.22641   
     axis 0 0 -20   XYZ
    dof rx
    limits (-10.0 170.0)
 end
 begin
     id 9 
     name rfoot
     direction -0.105675 -0.29034 0.951071   
     length 2.48149  
     axis -90 -7.62852e-016 -20   XYZ
    dof rx rz
    limits (-45.0 90.0)
           (-20.0 70.0)
  end
  begin
     id 10 
     name rtoes
     direction -1.5349e-011 -4.21859e-011 1   
     length 1.23343   
     axis -90 -7.62852e-016 -20   XYZ
    dof rx
    limits (-90.0 20.0)
  end
  begin
     id 11 
     name lowerback
     direction 0.0104173 0.993624 -0.112266   
     length 2.00527   
     axis 0 0 0   XYZ
    dof rx ry rz
    limits (-20.0 45.0)
           (-30.0 30.0)
           (-30.0 30.0)
  end
  begin
     id 12 
     name upperback
     direction 0.00733149 0.999856 -0.0152913   
     length 2.01385   
     axis 0 0 0   XYZ
    dof rx ry rz
    limits (-20.0 45.0)
           (-30.0 30.0)
           (-30.0 30.0)
  end
  begin
     id 13 
     name thorax
     direction 0.0026304 0.999318 0.036841   
     length 2.03734   
     axis 0 0 0   XYZ
    dof rx ry rz
    limits (-20.0 45.0)
           (-30.0 30.0)
           (-30.0 30.0)
  end
  begin
     id 14 
     name lowerneck
     direction 0.0293154 0.998757 0.0403082   
     length 1.65303   
     axis 0 0 0   XYZ
    dof rx ry rz
    limits (-20.0 45.0)
           (-30.0 30.0)
           (-30.0 30.0)
  end
  begin
     id 15 
     name upperneck
     direction -0.0376619 0.998184 -0.0470083   
     length 1.60926   
     axis 0 0 0   XYZ
    dof rx ry rz
    limits (-20.0 45.0)
           (-30.0 30.0)
           (-30.0 30.0)
  end
  begin
     id 16
     name head
     direction -0.0170133 0.999635 -0.0209778  
     length 1.73625  
     axis 0 0 0   XYZ
    dof rx ry rz
    limits (-20.0 45.0)
           (-30.0 30.0)
           (-30.0 30.0)
  end
  begin
     id 17 
     name lclavicle
     direction 0.919857 0.39181 -0.0186333  
     length 3.75313  
     axis 0 0 0   XYZ
    dof ry rz
    limits (-20.0 10.0)
           (0.0 20.0)
  end
  begin
     id 18 
     name lhumerus
     direction 1 -4.48988e-011 1.44029e-027   
     length 5.49313   
     axis 180 -30 -90   XYZ
    dof rx ry rz
    limits (-60.0 90.0)
           (-90.0 90.0)
           (-90.0 90.0)
  end
  begin
     id 19
     name lradius
     direction 1 -4.48924e-011 7.46281e-027   
     length 3.29037   
     axis 180 -30 -90   XYZ
    dof rx
    limits (-10.0 170.0)
  end
  begin
     id 20
     name lwrist
     direction 1 -4.48955e-011 2.19879e-026   
     length 1.64519   
     axis -1.34358e-014 90 90   XYZ
    dof ry
    limits (-180.0 0.0)
 end
  begin
     id 21 
     name lhand
     direction 1 -4.48978e-011 4.39747e-026   
     length 0.729656   
     axis -2.80598e-014 90 90   XYZ
    dof rx rz
    limits (-90.0 90.0)
           (-45.0 45.0)
  end
  begin
     id 22 
     name lfingers
     direction 1 -4.49071e-011 8.79411e-026   
     length 0.588268   
     axis -5.61193e-014 90 90   XYZ
    dof rx
    limits (0.0 90.0)
  end
  begin
     id 23
     name lthumb
     direction 0.707107 -6.34817e-011 0.707107   
     length 0.844638   
     axis -90 45 -9.86923e-015   XYZ
    dof rx rz
    limits (-45.0 45.0)
           (-45.0 45.0)
  end
  begin
     id 24 
     name rclavicle
     direction -0.919898 0.388279 0.0550233   
     length 3.7171  
     axis 0 0 0   XYZ 
    dof ry rz
    limits (-10.0 20.0)
           (-20.0 0.0)
  end
  begin
     id 25 
     name rhumerus
     direction -1 -4.48968e-011 9.98372e-028  
     length 5.23684   
     axis 180 30 90   XYZ
    dof rx ry rz
    limits (-90.0 60.0)
           (-90.0 90.0)
           (-90.0 90.0)
  end
  begin
     id 26 
     name rradius
     direction -1 -4.48956e-011 1.01023e-026   
     length 3.38251   
     axis 180 30 90   XYZ
    dof rx
    limits (-10.0 170.0)
  end
  begin
     id 27 
     name rwrist
     direction -1 -4.4892e-011 2.19886e-026   
     length 1.69126   
     axis -1.34358e-014 -90 -90   XYZ
    dof ry
    limits (-180.0 0.0)
  end
  begin
     id 28
     name rhand
     direction -1 -4.49024e-011 4.39727e-026   
     length 0.691454   
     axis -2.80598e-014 -90 -90   XYZ
    dof rx rz
    limits (-90.0 90.0)
           (-45.0 45.0)
  end
  begin
     id 29
     name rfingers
     direction -1 -4.49097e-011 8.79388e-026   
     length 0.557468   
     axis -5.61193e-014 -90 -90   XYZ
    dof rx
    limits (0.0 90.0)
  end
  begin
     id 30
     name rthumb
     direction -0.707107 -6.34938e-011 0.707107   
     length 0.800416   
     axis -90 -45 9.86923e-015   XYZ
    dof rx rz
    limits (-45.0 45.0)
           (-45.0 45.0)
  end
:hierarchy
  begin
    root lhipjoint rhipjoint lowerback
    lhipjoint lfemur
    lfemur ltibia
    ltibia lfoot
    lfoot ltoes
    rhipjoint rfemur
    rfemur rtibia
    rtibia rfoot
    rfoot rtoes
    lowerback upperback
    upperback thorax
    thorax lowerneck lclavicle rclavicle
    lowerneck upperneck
    upperneck head
    lclavicle lhumerus
    lhumerus lradius
    lradius lwrist
    lwrist lhand lthumb
    lhand lfingers
    rclavicle rhumerus
    rhumerus rradius
    rradius rwrist
    rwrist rhand rthumb
    rhand rfingers
  end

#!OML:ASF H:\BabyWalks\Project 1\Capture day 1\Session 1\baby.ASF
:FULLY-SPECIFIED
:DEGREES
167
root -32.7161 17.1927 14.996 -9.71069 73.8784 -18.9163
lowerback 15.2463 3.10844 -2.45392
upperback 5.5261 3.8952 -1.91115
thorax -2.69417 2.02594 -1.29538
lowerneck -2.36589 1.98457 6.94963
upperneck -2.96819 2.51634 -2.33575
head -0.403551 1.21616 -1.90197
rclavicle -4.53229e-014 -1.19271e-014
rhumerus -50.6054 15.5658 -92.6002
rradius 39.9483
rwrist 4.19764
rhand -10.5604 -14.7133
rfingers 7.12502
rthumb 15.4439 -44.1163
lclavicle -4.53229e-014 -1.19271e-014
lhumerus -46.6853 -7.28803 76.2659
lradius 44.7069
lwrist 1.4178
lhand 1.34449 13.1679
lfingers 7.12502
lthumb 26.8775 41.2772
rfemur 3.38923 8.61212 23.6428
rtibia 20.8711
rfoot -22.521 -8.71682
rtoes -15.2146
lfemur -23.5948 -3.71237 -14.1053
ltibia 43.3931
lfoot -30.373 -5.74304
ltoes 1.58819
168
root -32.643 17.1995 14.9929 -10.3102 73.8159 -19.6508
lowerback 15.2162 3.13243 -2.50539
upperback 5.50852 3.9182 -1.94048
thorax -2.6977 2.03687 -1.30016
lowerneck -2.41612 1.93248 6.89464
upperneck -2.91659 2.44668 -2.19812
head -0.384653 1.18209 -1.84671
rclavicle 6.95746e-014 -6.36111e-015
rhumerus -50.5451 15.566 -92.5668
rradius 39.9695
rwrist 4.04777
rhand -10.6385 -14.7801
rfingers 7.12502
rthumb 15.3687 -44.1889
lclavicle 6.95746e-014 -6.36111e-015
lhumerus -46.3152 -7.05144 76.0388
lradius 44.9252
lwrist 1.42815
lhand 1.29455 13.1126
lfingers 7.12502
lthumb 26.8297 41.2292
rfemur 3.00474 8.48336 23.6286
rtibia 21.7456
rfoot -22.1355 -8.00672
rtoes -16.1306
lfemur -23.3762 -3.7696 -13.9642
ltibia 43.2879
lfoot -30.5733 -5.58196
ltoes 1.43729
169
root -32.5698 17.2067 14.99 -10.8402 73.7485 -20.3116
lowerback 15.2094 3.15052 -2.56544
upperback 5.47903 3.93043 -1.97124
thorax -2.72665 2.04233 -1.30169
lowerneck -2.47656 1.88481 6.85355
upperneck -2.84395 2.38109 -2.0829
head -0.356704 1.15028 -1.80108
rclavicle -1.82882e-014 -1.90833e-014
rhumerus -50.5052 15.5834 -92.5383
rradius 40.0164
rwrist 3.87525
rhand -10.71 -14.8375
rfingers 7.12502
rthumb 15.2999 -44.2516
lclavicle -1.82882e-014 -1.90833e-014
lhumerus -45.9459 -6.82246 75.8264
lradius 45.1841
lwrist 1.4449
lhand 1.23428 13.0627
lfingers 7.12502
lthumb 26.7721 41.1882
rfemur 2.569 8.36332 23.5802
rtibia 22.7073
rfoot -21.7364 -7.23829
rtoes -16.9701
lfemur -23.1415 -3.81583 -13.8441
ltibia 43.154
lfoot -30.7559 -5.42561
ltoes 1.29618
170
root -32.4963 17.215 14.9879 -11.3133 73.6738 -20.9018
lowerback 15.2039 3.16435 -2.65056
upperback 5.45582 3.9341 -1.99307
thorax -2.7519 2.04338 -1.27827
lowerneck -2.52714 1.84552 6.80864
upperneck -2.78348 2.32719 -1.98336
head -0.333477 1.12428 -1.76011
rclavicle 4.6118e-014 8.74653e-015
rhumerus -50.4691 15.6386 -92.5082
rradius 40.086
rwrist 3.67306
rhand -10.7798 -14.881
rfingers 7.12502
rthumb 15.2326 -44.3002
lclavicle 4.6118e-014 8.74653e-015
lhumerus -45.5935 -6.59186 75.6376
lradius 45.5117
lwrist 1.47353
lhand 1.1349 12.9588
lfingers 7.12502
lthumb 26.677 41.0988
rfemur 2.0973 8.2536 23.505
rtibia 23.7474
rfoot -21.3283 -6.4123
rtoes -17.6509
lfemur -22.8723 -3.84346 -13.7424
ltibia 42.9841
lfoot -30.9205 -5.28434
ltoes 1.1878
171
root -32.4228 17.2239 14.9861 -11.7041 73.5991 -21.3978
lowerback 15.2198 3.17063 -2.75274
upperback 5.42786 3.92418 -2.01538
thorax -2.79459 2.03765 -1.245
lowerneck -2.58182 1.81493 6.75346
upperneck -2.71889 2.28461 -1.88825
head -0.307766 1.10413 -1.71869
rclavicle -8.74653e-015 -3.18055e-015
rhumerus -50.4449 15.724 -92.4855
rradius 40.1769
rwrist 3.44233
rhand -10.8442 -14.9242
rfingers 7.12502
rthumb 15.1706 -44.3481
lclavicle -8.74653e-015 -3.18055e-015
lhumerus -45.2449 -6.37842 75.4721
lradius 45.8801
lwrist 1.52278
lhand 1.01101 12.8628
lfingers 7.12502
lthumb 26.5584 41.0208
rfemur 1.5861 8.14534 23.3938
rtibia 24.8615
rfoot -20.9194 -5.53994
rtoes -18.1518
lfemur -22.5757 -3.85387 -13.6693
ltibia 42.777
lfoot -31.0621 -5.1635
ltoes 1.10701
172
root -32.3484 17.2334 14.9851 -11.9928 73.5194 -21.7819
lowerback 15.2367 3.17653 -2.8697
upperback 5.40111 3.91143 -2.04506
thorax -2.83684 2.03063 -1.2107
lowerneck -2.645 1.78773 6.70201
upperneck -2.65418 2.24579 -1.7989
head -0.280291 1.08588 -1.67978
rclavicle -4.77083e-014 1.11319e-014
rhumerus -50.4249 15.8135 -92.4685
rradius 40.2861
rwrist 3.19726
rhand -10.909 -14.9569
rfingers 7.12502
rthumb 15.1082 -44.3855
lclavicle -4.77083e-014 1.11319e-014
lhumerus -44.9259 -6.1963 75.3234
lradius 46.3276
lwrist 1.58712
lhand 0.861938 12.7528
lfingers 7.12502
lthumb 26.4157 40.9324
rfemur 1.03999 8.0436 23.246
rtibia 26.0344
rfoot -20.5305 -4.63425
rtoes -18.4685
lfemur -22.2461 -3.8405 -13.6286
ltibia 42.5299
lfoot -31.1878 -5.05911
ltoes 1.03853
173
root -32.2729 17.244 14.9847 -12.141 73.4484 -22.0171
lowerback 15.2409 3.17666 -3.02338
upperback 5.38113 3.88682 -2.07689
thorax -2.86715 2.01766 -1.15502
lowerneck -2.71038 1.77056 6.64899
upperneck -2.59406 2.22 -1.72472
head -0.25312 1.07414 -1.6455
rclavicle 2.22639e-014 -4.77083e-015
rhumerus -50.4025 15.9318 -92.453
rradius 40.4101
rwrist 2.92356
rhand -10.9818 -14.9858
rfingers 7.12502
rthumb 15.038 -44.4196
lclavicle 2.22639e-014 -4.77083e-015
lhumerus -44.6491 -6.02032 75.1967
lradius 46.8667
lwrist 1.65955
lhand 0.708828 12.6565
lfingers 7.12502
lthumb 26.2691 40.858
rfemur 0.460764 7.92923 23.046
rtibia 27.2538
rfoot -20.1833 -3.70068
rtoes -18.6333
lfemur -21.8904 -3.81282 -13.6359
ltibia 42.2413
lfoot -31.2899 -4.98464
ltoes 1.07324
174
root -32.1968 17.2549 14.985 -12.2317 73.3892 -22.1869
lowerback 15.252 3.17002 -3.1714
upperback 5.3591 3.85341 -2.1183
thorax -2.90212 2.00062 -1.11146
lowerneck -2.77318 1.75617 6.60689
upperneck -2.53608 2.19781 -1.65592
head -0.226726 1.06414 -1.61499
rclavicle -2.3059e-014 -1.43125e-014
rhumerus -50.3895 16.0408 -92.4507
rradius 40.5426
rwrist 2.63564
rhand -11.0597 -14.9927
rfingers 7.12502
rthumb 14.963 -44.4322
lclavicle -2.3059e-014 -1.43125e-014
lhumerus -44.3797 -5.90474 75.0845
lradius 47.4525
lwrist 1.76535
lhand 0.549409 12.5842
lfingers 7.12502
lthumb 26.1165 40.8082
rfemur -0.143364 7.8012 22.8253
rtibia 28.5019
rfoot -19.8898 -2.78065
rtoes -18.7361
lfemur -21.5102 -3.77512 -13.6646
ltibia 41.914
lfoot -31.3639 -4.94657
ltoes 1.20971
175
root -32.1196 17.2669 14.9861 -12.2433 73.3259 -22.2801
lowerback 15.2383 3.16285 -3.32796
upperback 5.34438 3.81969 -2.16191
thorax -2.91641 1.98341 -1.06355
lowerneck -2.84009 1.7459 6.5761
upperneck -2.48598 2.18038 -1.60571
head -0.201549 1.05634 -1.59252
rclavicle 4.6118e-014 -2.22639e-014
rhumerus -50.3672 16.1518 -92.4474
rradius 40.683
rwrist 2.3424
rhand -11.1415 -14.9959
rfingers 7.12502
rthumb 14.8842 -44.4412
lclavicle 4.6118e-014 -2.22639e-014
lhumerus -44.1086 -5.82427 74.9901
lradius 48.0921
lwrist 1.89613
lhand 0.385639 12.5298
lfingers 7.12502
lthumb 25.9597 40.7769
rfemur -0.782493 7.65957 22.5829
rtibia 29.7672
rfoot -19.6425 -1.8871
rtoes -18.774
lfemur -21.1117 -3.71939 -13.7138
ltibia 41.5498
lfoot -31.4202 -4.92374
ltoes 1.39423
176
root -32.042 17.2798 14.9878 -12.2156 73.2802 -22.3411
lowerback 15.2092 3.14319 -3.47529
upperback 5.3362 3.7722 -2.20839
thorax -2.91453 1.9595 -1.02014
lowerneck -2.9198 1.74246 6.55067
upperneck -2.44085 2.17102 -1.56737
head -0.175227 1.05251 -1.57469
rclavicle 2.8625e-014 1.27222e-014
rhumerus -50.3257 16.2614 -92.4447
rradius 40.8186
rwrist 2.05256
rhand -11.2308 -14.9897
rfingers 7.12502
rthumb 14.7981 -44.4414
lclavicle 2.8625e-014 1.27222e-014
lhumerus -43.8091 -5.77667 74.909
lradius 48.7535
lwrist 2.05416
lhand 0.179774 12.3893
lfingers 7.12502
lthumb 25.7626 40.6652
rfemur -1.45911 7.47815 22.3295
rtibia 31.0401
rfoot -19.4612 -1.04864
rtoes -18.8192
lfemur -20.7121 -3.6668 -13.7742
ltibia 41.1548
lfoot -31.4608 -4.91564
ltoes 1.59087
177
root -31.9643 17.2934 14.9902 -12.1467 73.2499 -22.3715
lowerback 15.1826 3.11651 -3.61018
upperback 5.31796 3.71627 -2.26117
thorax -2.92317 1.93154 -0.989343
lowerneck -2.99091 1.73989 6.54051
upperneck -2.39767 2.16285 -1.54048
head -0.150616 1.04912 -1.56339
rclavicle 1.27222e-014 -3.02153e-014
rhumerus -50.2987 16.3456 -92.449
rradius 40.9554
rwrist 1.77003
rhand -11.3376 -14.964
rfingers 7.12502
rthumb 14.6953 -44.4232
lclavicle 1.27222e-014 -3.02153e-014
lhumerus -43.5039 -5.78661 74.8377
lradius 49.4432
lwrist 2.24406
lhand -0.00994146 12.32
lfingers 7.12502
lthumb 25.5809 40.6221
rfemur -2.17805 7.24775 22.0669
rtibia 32.315
rfoot -19.3426 -0.290908
rtoes -18.8895
lfemur -20.316 -3.6209 -13.8444
ltibia 40.7312
lfoot -31.4678 -4.93388
ltoes 1.85861
178
root -31.8863 17.3078 14.9931 -12.0402 73.2373 -22.3696
lowerback 15.1427 3.078 -3.74325
upperback 5.30644 3.64648 -2.3129
thorax -2.91727 1.89673 -0.95496
lowerneck -3.06973 1.74314 6.53818
upperneck -2.35772 2.1615 -1.53144
head -0.125115 1.04905 -1.55912
rclavicle -2.06736e-014 1.59028e-015
rhumerus -50.2588 16.4306 -92.4506
rradius 41.083
rwrist 1.49645
rhand -11.4572 -14.9321
rfingers 7.12502
rthumb 14.58 -44.3996
lclavicle -2.06736e-014 1.59028e-015
lhumerus -43.1779 -5.82717 74.7773
lradius 50.1492
lwrist 2.46317
lhand -0.228334 12.2028
lfingers 7.12502
lthumb 25.3717 40.5348
rfemur -2.93057 6.96372 21.7971
rtibia 33.5877
rfoot -19.2787 0.358292
rtoes -18.9898
lfemur -19.9178 -3.58878 -13.9273
ltibia 40.2817
lfoot -31.4543 -4.958
ltoes 2.10825
179
root -31.8081 17.3228 14.9966 -11.8854 73.2424 -22.3286
lowerback 15.1071 3.02927 -3.87178
upperback 5.28805 3.56321 -2.36761
thorax -2.92007 1.85534 -0.924398
lowerneck -3.15245 1.75126 6.5427
upperneck -2.31094 2.16594 -1.53095
head -0.0964049 1.05189 -1.5587
rclavicle 1.90833e-014 -1.43125e-014
rhumerus -50.2191 16.4974 -92.4505
rradius 41.1979
rwrist 1.24037
rhand -11.5793 -14.8898
rfingers 7.12502
rthumb 14.4624 -44.3658
lclavicle 1.90833e-014 -1.43125e-014
lhumerus -42.8486 -5.89816 74.7208
lradius 50.8827
lwrist 2.70326
lhand -0.45286 12.0841
lfingers 7.12502
lthumb 25.1565 40.4465
rfemur -3.72329 6.62082 21.5183
rtibia 34.8569
rfoot -19.2122 0.887716
rtoes -18.9975
lfemur -19.5262 -3.57486 -14.0252
ltibia 39.8101
lfoot -31.4185 -4.98337
ltoes 2.32298
180
root -31.7291 17.3383 15.0005 -11.6876 73.2683 -22.2365
lowerback 15.0792 2.97027 -4.00382
upperback 5.27309 3.46603 -2.42209
thorax -2.92307 1.8072 -0.889519
lowerneck -3.24122 1.76735 6.54621
upperneck -2.26116 2.18054 -1.53417
head -0.0652797 1.05987 -1.55912
rclavicle 3.73715e-014 -6.36111e-015
rhumerus -50.1771 16.5541 -92.444
rradius 41.3043
rwrist 1.0074
rhand -11.6939 -14.85
rfingers 7.12502
rthumb 14.352 -44.3339
lclavicle 3.73715e-014 -6.36111e-015
lhumerus -42.5431 -5.99498 74.6692
lradius 51.6675
lwrist 2.9666
lhand -0.70371 11.9067
lfingers 7.12502
lthumb 24.9162 40.3026
rfemur -4.53391 6.21644 21.2302
rtibia 36.1189
rfoot -19.1486 1.29249
rtoes -18.8908
lfemur -19.1199 -3.58297 -14.1452
ltibia 39.3209
lfoot -31.3724 -5.00435
ltoes 2.47916
